# xmcd
#
# Track frame offsets:
#	150
#	14482
#	28097
#	42150
#	54245
#	63370
#	73220
#	83120
#	95970
#	107895
#	121957
#	134752
#	144882
#	171420
#	183687
#
# Disc length: 2637
#
# Revision: 5
# Processed by: cddbd v1.5.1PL0 Copyright (c) Steve Scherf et al.
# Submitted via: CDex 1.51
# Normalized: r4:TSWAP
#
DISCID=e10a4b0f
DTITLE=Various Artist - Country Stars Vol1
DYEAR=1900
DGENRE=Country
TTITLE0=Bobby Helms - My Special Angel
TTITLE1=The Oak ridge Boys - The Old Country Church
TTITLE2=Mac Davis - I Feel The Country Calling Me
TTITLE3=Freddy Fender - You'll Lose a Good Thing
TTITLE4=Del Reeves - Good Time Charlie
TTITLE5=Ernest Tubb - Half My Heart's In Texas
TTITLE6=Johnny Lee - Red Sails in Sunset
TTITLE7=Hank Williams Sr - Jambalaya
TTITLE8=Willie Nelson - I Hope So
TTITLE9=Ricky Skaggs - Another Song, Another Drink
TTITLE10=Kenny Rogers - Ruby, Don"t Take Your Love To Town
TTITLE11=Ferlin Husky - Gone
TTITLE12=Jimmy Dean - I. O. U.
TTITLE13=Johnny Cash - I Walk The Line
TTITLE14=Tex Ritter - High Noon
EXTD=
EXTT0=
EXTT1=
EXTT2=
EXTT3=
EXTT4=
EXTT5=
EXTT6=
EXTT7=
EXTT8=
EXTT9=
EXTT10=
EXTT11=
EXTT12=
EXTT13=
EXTT14=
PLAYORDER=
